<svg width="49" height="48" viewBox="0 0 49 48" fill="none" xmlns="http://www.w3.org/2000/svg">
<path fill-rule="evenodd" clip-rule="evenodd" d="M1.51265 5.39026C0.38678 7.55764 0.38678 10.4051 0.38678 16.1V31.9C0.38678 37.5949 0.38678 40.4424 1.51265 42.6097C2.4614 44.4362 3.9506 45.9254 5.77704 46.8741C7.94442 48 10.7919 48 16.4868 48H32.2868C37.9817 48 40.8291 48 42.9965 46.8741C44.823 45.9254 46.3122 44.4362 47.2609 42.6097C48.3868 40.4424 48.3868 37.5949 48.3868 31.9V16.1C48.3868 10.4051 48.3868 7.55764 47.2609 5.39026C46.3122 3.56382 44.823 2.07462 42.9965 1.12587C40.8291 0 37.9817 0 32.2868 0H16.4868C10.7919 0 7.94442 0 5.77704 1.12587C3.9506 2.07462 2.4614 3.56382 1.51265 5.39026ZM17.1632 6.65093C19.025 6.5662 19.6199 6.54547 24.3601 6.54547H24.3546C29.0963 6.54547 29.689 6.5662 31.5508 6.65093C33.4089 6.73602 34.678 7.0302 35.7907 7.46183C36.9397 7.90729 37.9106 8.50365 38.8815 9.47456C39.8524 10.4447 40.4487 11.4186 40.896 12.5666C41.325 13.6764 41.6196 14.9447 41.7069 16.8029C41.7905 18.6647 41.8123 19.2597 41.8123 24C41.8123 28.7404 41.7905 29.3338 41.7069 31.1957C41.6196 33.0531 41.325 34.3218 40.896 35.432C40.4487 36.5797 39.8524 37.5535 38.8815 38.5237C37.9117 39.4946 36.9394 40.0924 35.7918 40.5382C34.6812 40.9698 33.4115 41.264 31.5533 41.3491C29.6916 41.4338 29.0985 41.4546 24.3579 41.4546C19.6181 41.4546 19.0235 41.4338 17.1618 41.3491C15.304 41.264 14.0353 40.9698 12.9248 40.5382C11.7776 40.0924 10.8038 39.4946 9.834 38.5237C8.86348 37.5535 8.26714 36.5797 7.82097 35.4316C7.38971 34.3218 7.09554 33.0535 7.01008 31.1953C6.92572 29.3335 6.90463 28.7404 6.90463 24C6.90463 19.2597 6.92645 18.6644 7.00972 16.8026C7.09335 14.9451 7.38789 13.6764 7.8206 12.5662C8.26786 11.4186 8.86421 10.4447 9.83509 9.47456C10.8052 8.50402 11.779 7.90765 12.927 7.46183C14.0368 7.0302 15.3051 6.73602 17.1632 6.65093ZM23.7784 9.69075C23.4254 9.6906 23.0984 9.69045 22.7943 9.69093V9.68656C19.5413 9.6902 18.9174 9.71202 17.3072 9.78474C15.6055 9.86293 14.6815 10.1466 14.0662 10.3866C13.2517 10.7037 12.6699 11.0818 12.059 11.6927C11.4481 12.3037 11.0692 12.8855 10.7529 13.7C10.514 14.3153 10.2296 15.2389 10.1518 16.9407C10.0682 18.7807 10.0514 19.3306 10.0514 23.9917C10.0514 28.6527 10.0682 29.2055 10.1518 31.0455C10.2293 32.7473 10.514 33.6709 10.7529 34.2855C11.07 35.1004 11.4481 35.6807 12.059 36.2917C12.6699 36.9026 13.2517 37.2807 14.0662 37.5971C14.6819 37.836 15.6055 38.1204 17.3072 38.1989C19.1472 38.2826 19.6995 38.3007 24.3601 38.3007C29.0203 38.3007 29.573 38.2826 31.413 38.1989C33.1147 38.1211 34.0391 37.8375 34.6536 37.5975C35.4685 37.2811 36.0485 36.9029 36.6594 36.292C37.2703 35.6815 37.6492 35.1015 37.9655 34.2869C38.2044 33.6724 38.4888 32.7487 38.5666 31.0469C38.6502 29.2069 38.6684 28.6542 38.6684 23.996C38.6684 19.3378 38.6502 18.7851 38.5666 16.9451C38.4891 15.2433 38.2044 14.3197 37.9655 13.7051C37.6484 12.8906 37.2703 12.3087 36.6594 11.6978C36.0488 11.0869 35.4681 10.7087 34.6536 10.3924C34.0384 10.1535 33.1147 9.86911 31.413 9.79129C29.5727 9.70765 29.0203 9.69093 24.3601 9.69093C24.1587 9.69093 23.9649 9.69084 23.7784 9.69075ZM31.5824 14.6829C31.5824 13.5262 32.5206 12.5891 33.6769 12.5891V12.5884C34.8332 12.5884 35.7714 13.5266 35.7714 14.6829C35.7714 15.8393 34.8332 16.7775 33.6769 16.7775C32.5206 16.7775 31.5824 15.8393 31.5824 14.6829ZM15.3967 24C15.3967 19.05 19.4099 15.0366 24.3597 15.0364C29.3098 15.0364 33.322 19.0498 33.322 24C33.322 28.9502 29.3101 32.9618 24.3601 32.9618C19.4101 32.9618 15.3967 28.9502 15.3967 24ZM30.1781 24C30.1781 20.7866 27.5731 18.1818 24.3601 18.1818C21.1467 18.1818 18.5421 20.7866 18.5421 24C18.5421 27.2131 21.1467 29.8182 24.3601 29.8182C27.5731 29.8182 30.1781 27.2131 30.1781 24Z" fill="white"/>
</svg>
