<svg width="49" height="48" viewBox="0 0 49 48" fill="none" xmlns="http://www.w3.org/2000/svg">
<path fill-rule="evenodd" clip-rule="evenodd" d="M1.48524 5.39026C0.359375 7.55764 0.359375 10.4051 0.359375 16.1V31.9C0.359375 37.5949 0.359375 40.4424 1.48524 42.6097C2.434 44.4362 3.9232 45.9254 5.74963 46.8741C7.91701 48 10.7645 48 16.4594 48H32.2594C37.9543 48 40.8017 48 42.9691 46.8741C44.7956 45.9254 46.2848 44.4362 47.2335 42.6097C48.3594 40.4424 48.3594 37.5949 48.3594 31.9V16.1C48.3594 10.4051 48.3594 7.55764 47.2335 5.39026C46.2848 3.56382 44.7956 2.07462 42.9691 1.12587C40.8017 0 37.9543 0 32.2594 0H16.4594C10.7645 0 7.91701 0 5.74963 1.12587C3.9232 2.07462 2.434 3.56382 1.48524 5.39026ZM34.7594 24L33.6927 30.6666H28.3594V48H20.3594V30.6666H14.3594V24H20.3594V18.6666C20.3594 12.6666 24.226 9.33331 29.6927 9.33331C31.426 9.33331 33.2927 9.59998 35.026 9.86665V16H31.9594C29.026 16 28.3594 17.4666 28.3594 19.3333V24H34.7594Z" fill="white"/>
</svg>
