<svg width="49" height="48" viewBox="0 0 49 48" fill="none" xmlns="http://www.w3.org/2000/svg">
<path fill-rule="evenodd" clip-rule="evenodd" d="M1.48524 5.39026C0.359375 7.55764 0.359375 10.4051 0.359375 16.1V31.9C0.359375 37.5949 0.359375 40.4424 1.48524 42.6097C2.434 44.4362 3.9232 45.9254 5.74963 46.8741C7.91701 48 10.7645 48 16.4594 48H32.2594C37.9543 48 40.8017 48 42.9691 46.8741C44.7956 45.9254 46.2848 44.4362 47.2335 42.6097C48.3594 40.4424 48.3594 37.5949 48.3594 31.9V16.1C48.3594 10.4051 48.3594 7.55764 47.2335 5.39026C46.2848 3.56382 44.7956 2.07462 42.9691 1.12587C40.8017 0 37.9543 0 32.2594 0H16.4594C10.7645 0 7.91701 0 5.74963 1.12587C3.9232 2.07462 2.434 3.56382 1.48524 5.39026ZM11.1332 14.9066C13.4329 14.9066 15.2972 13.0423 15.2972 10.7426C15.2972 8.44289 13.4329 6.57861 11.1332 6.57861C8.83347 6.57861 6.96919 8.44289 6.96919 10.7426C6.96919 13.0423 8.83347 14.9066 11.1332 14.9066ZM19.1107 17.9839H26.0118V21.1453C26.0118 21.1453 27.8844 17.3999 32.9798 17.3999C37.5251 17.3999 41.2903 19.639 41.2903 26.464V40.856H34.1389V28.2079C34.1389 24.1818 31.9894 23.739 30.3515 23.739C26.9523 23.739 26.3704 26.671 26.3704 28.7331V40.856H19.1107V17.9839ZM14.763 17.9839H7.50333V40.856H14.763V17.9839Z" fill="white"/>
</svg>
