<svg width="49" height="48" viewBox="0 0 49 48" fill="none" xmlns="http://www.w3.org/2000/svg">
<path fill-rule="evenodd" clip-rule="evenodd" d="M1.48524 5.39026C0.359375 7.55764 0.359375 10.4051 0.359375 16.1V31.9C0.359375 37.5949 0.359375 40.4424 1.48524 42.6097C2.434 44.4362 3.9232 45.9254 5.74963 46.8741C7.91701 48 10.7645 48 16.4594 48H32.2594C37.9543 48 40.8017 48 42.9691 46.8741C44.7956 45.9254 46.2848 44.4362 47.2335 42.6097C48.3594 40.4424 48.3594 37.5949 48.3594 31.9V16.1C48.3594 10.4051 48.3594 7.55764 47.2335 5.39026C46.2848 3.56382 44.7956 2.07462 42.9691 1.12587C40.8017 0 37.9543 0 32.2594 0H16.4594C10.7645 0 7.91701 0 5.74963 1.12587C3.9232 2.07462 2.434 3.56382 1.48524 5.39026ZM8.11207 22.3721L37.0103 11.226C38.3302 10.6269 39.6041 11.5432 39.1003 13.5632L34.1791 36.7536C33.8356 38.4017 32.8395 38.796 31.4599 38.0349L23.963 32.4958L23.8312 32.6239C22.1241 34.2837 20.6185 35.7475 20.3596 36.0009L20.3319 36.028C19.9269 36.4239 19.5926 36.7508 18.8593 36.7508C18.0981 36.7508 18.0346 36.5256 17.8816 35.9832C17.8393 35.8332 17.7902 35.6589 17.7176 35.4584L14.9599 27.0036L7.75257 24.754C6.15142 24.2635 6.13972 23.1634 8.11207 22.3721ZM32.3363 16.2375L16.091 26.4868L18.8285 34.8794L19.3701 29.1026L33.2803 16.552C33.8909 16.0101 33.1473 15.7457 32.3363 16.2375Z" fill="white"/>
</svg>
