<svg width="49" height="48" viewBox="0 0 49 48" fill="none" xmlns="http://www.w3.org/2000/svg">
<path fill-rule="evenodd" clip-rule="evenodd" d="M1.48524 5.39026C0.359375 7.55764 0.359375 10.4051 0.359375 16.1V31.9C0.359375 37.5949 0.359375 40.4424 1.48524 42.6097C2.434 44.4362 3.9232 45.9254 5.74963 46.8741C7.91701 48 10.7645 48 16.4594 48H32.2594C37.9543 48 40.8017 48 42.9691 46.8741C44.7956 45.9254 46.2848 44.4362 47.2335 42.6097C48.3594 40.4424 48.3594 37.5949 48.3594 31.9V16.1C48.3594 10.4051 48.3594 7.55764 47.2335 5.39026C46.2848 3.56382 44.7956 2.07462 42.9691 1.12587C40.8017 0 37.9543 0 32.2594 0H16.4594C10.7645 0 7.91701 0 5.74963 1.12587C3.9232 2.07462 2.434 3.56382 1.48524 5.39026ZM41.6179 14.944C41.2027 13.402 39.9869 12.1862 38.4449 11.771C35.6278 11 24.3593 11 24.3593 11C24.3593 11 13.0908 11 10.2737 11.7413C8.76134 12.1565 7.51588 13.402 7.10072 14.944C6.35938 17.7611 6.35938 23.6029 6.35938 23.6029C6.35938 23.6029 6.35938 29.4744 7.10072 32.2619C7.51588 33.8039 8.73169 35.0197 10.2737 35.4348C13.1205 36.2058 24.3593 36.2058 24.3593 36.2058C24.3593 36.2058 35.6278 36.2058 38.4449 35.4645C39.9869 35.0493 41.2027 33.8335 41.6179 32.2915C42.3592 29.4744 42.3592 23.6326 42.3592 23.6326C42.3592 23.6326 42.3889 17.7611 41.6179 14.944ZM20.7711 28.794L30.1418 23.397L20.7711 18V28.794Z" fill="white"/>
</svg>
